#!OML:ASF E:\emotionWalksFemale\Project 1\Capture day 1\Session 1\Female1.ASF
:FULLY-SPECIFIED
:DEGREES
1746
root 9.93674 15.2479 -34.2588 0.613117 5.2623 -1.0698
lowerback 4.18255 1.39292 -1.24383
upperback -3.87888 1.71699 -1.06899
thorax -6.3851 0.878304 -0.582194
lowerneck -7.56456 -6.81528 -7.32349
upperneck 27.8924 -14.5505 20.7488
head 12.7515 -5.19031 7.33337
rclavicle 3.926e-014 2.38542e-015
rhumerus -45.7666 22.9175 -104.906
rradius 33.3447
rwrist 15.3561
rhand -5.03791 -50.3071
rfingers 7.12502
rthumb 20.757 -79.2169
lclavicle 3.926e-014 2.38542e-015
lhumerus -40.5034 -0.398434 84.4681
lradius 35.9425
lwrist -13.6626
lhand -6.60222 -34.4604
lfingers 7.12502
lthumb 19.2534 -5.39347
rfemur 12.9823 9.57699 31.5269
rtibia 22.235
rfoot -13.1935 -27.2371
rtoes 5.57758
lfemur -21.2139 -16.0152 -22.4581
ltibia 34.2829
lfoot -20.9436 8.8064
ltoes -18.3479
1747
root 9.95475 15.2578 -34.2206 0.760425 5.35589 -1.05328
lowerback 4.31686 1.31953 -1.31048
upperback -4.04418 1.60693 -1.10516
thorax -6.63876 0.826575 -0.579109
lowerneck -7.56445 -6.81943 -7.22622
upperneck 28.0318 -14.5922 20.6945
head 12.8051 -5.1978 7.29656
rclavicle 2.1916e-014 -1.11319e-014
rhumerus -45.7889 22.5989 -104.798
rradius 33.1509
rwrist 14.0514
rhand -7.03594 -48.6397
rfingers 7.12502
rthumb 18.8363 -77.7477
lclavicle 2.1916e-014 -1.11319e-014
lhumerus -40.6975 -0.560621 84.4875
lradius 36.1662
lwrist -13.5675
lhand -6.32091 -34.0297
lfingers 7.12502
lthumb 19.5238 -4.98996
rfemur 12.4465 8.94714 31.2044
rtibia 23.0715
rfoot -12.8274 -26.6626
rtoes 6.06056
lfemur -21.0773 -15.9409 -22.5391
ltibia 34.0732
lfoot -20.9605 8.75933
ltoes -19.068
1748
root 9.97993 15.2697 -34.1733 0.837137 4.97338 -1.06653
lowerback 4.17733 1.51192 -1.35995
upperback -4.12048 1.85946 -1.16437
thorax -6.6395 0.952242 -0.636027
lowerneck -7.42438 -6.89082 -7.01763
upperneck 27.9841 -14.7281 20.6925
head 12.7652 -5.246 7.23477
rclavicle 1.28216e-014 -5.56597e-015
rhumerus -45.6976 22.021 -104.544
rradius 32.874
rwrist 12.773
rhand -7.80919 -48.0366
rfingers 7.12502
rthumb 18.0924 -77.2151
lclavicle 1.28216e-014 -5.56597e-015
lhumerus -40.7828 -1.03796 84.6185
lradius 36.2285
lwrist -13.6209
lhand -6.2945 -34.4288
lfingers 7.12502
lthumb 19.5492 -5.39168
rfemur 11.9479 8.5037 30.7584
rtibia 23.9442
rfoot -12.3173 -25.789
rtoes 5.5133
lfemur -20.7779 -15.8487 -22.6367
ltibia 33.8327
lfoot -20.9985 9.33876
ltoes -19.7028
1749
root 9.99889 15.2771 -34.1168 0.809203 5.13171 -1.07916
lowerback 3.73095 1.40387 -1.47925
upperback -3.90922 1.72194 -1.11966
thorax -6.16313 0.890466 -0.491334
lowerneck -7.41744 -6.89664 -7.14578
upperneck 27.9106 -14.7481 20.8472
head 12.7651 -5.25963 7.31691
rclavicle 8.69683e-015 1.35174e-014
rhumerus -45.2375 21.9398 -104.191
rradius 32.5162
rwrist 11.8761
rhand -7.9154 -48.002
rfingers 7.12502
rthumb 17.9902 -77.19
lclavicle 8.69683e-015 1.35174e-014
lhumerus -40.4205 -0.995262 84.6523
lradius 36.0871
lwrist -13.7596
lhand -6.33246 -34.6003
lfingers 7.12502
lthumb 19.5127 -5.55945
rfemur 11.6504 7.82495 30.5317
rtibia 24.8093
rfoot -12.1209 -25.2361
rtoes 5.30994
lfemur -20.3577 -15.9379 -22.7563
ltibia 33.6027
lfoot -21.1305 9.55913
ltoes -21.1514
1750
root 10.0209 15.2902 -34.0711 0.916315 4.88353 -1.08304
lowerback 3.77667 1.42945 -1.52838
upperback -4.10064 1.7493 -1.11543
thorax -6.39398 0.907237 -0.467607
lowerneck -7.2223 -6.88978 -7.22209
upperneck 28.0402 -14.7642 20.8661
head 12.7879 -5.28077 7.35318
rclavicle -1.11816e-014 -1.19271e-014
rhumerus -45.3698 21.4267 -103.92
rradius 32.2192
rwrist 11.5077
rhand -7.46924 -48.4885
rfingers 7.12502
rthumb 18.4195 -77.6365
lclavicle -1.11816e-014 -1.19271e-014
lhumerus -40.573 -1.01305 84.6618
lradius 36.0305
lwrist -13.7677
lhand -6.53572 -34.561
lfingers 7.12502
lthumb 19.3173 -5.50045
rfemur 11.081 7.34693 30.1353
rtibia 25.7624
rfoot -11.7491 -24.4328
rtoes 5.48144
lfemur -20.079 -15.8295 -22.8446
ltibia 33.3183
lfoot -21.3027 9.75259
ltoes -22.0012
1751
root 10.0454 15.2993 -34.0151 0.763869 4.33274 -0.982754
lowerback 3.74225 1.55688 -1.69887
upperback -4.01494 1.91106 -1.10153
thorax -6.29095 0.994731 -0.369912
lowerneck -7.42182 -6.88472 -7.30921
upperneck 28.1939 -14.7687 20.8384
head 12.9024 -5.27632 7.36467
rclavicle -1.81391e-014 7.95139e-015
rhumerus -45.3366 21.0124 -103.545
rradius 32.009
rwrist 11.0282
rhand -7.21674 -49.1367
rfingers 7.12502
rthumb 18.6624 -78.2615
lclavicle -1.81391e-014 7.95139e-015
lhumerus -40.4989 -1.00095 84.7411
lradius 36.0635
lwrist -13.7387
lhand -5.99017 -33.672
lfingers 7.12502
lthumb 19.8418 -4.66486
rfemur 10.8202 7.09844 29.6438
rtibia 26.763
rfoot -11.2188 -23.5911
rtoes 5.51709
lfemur -19.3989 -15.7665 -23.1307
ltibia 32.9946
lfoot -21.5463 10.201
ltoes -21.4851
1752
root 10.0601 15.2981 -33.9761 0.641318 4.61728 -0.831099
lowerback 3.85208 1.43699 -2.05172
upperback -3.94577 1.72682 -1.06473
thorax -6.29226 0.920249 -0.119104
lowerneck -7.36216 -6.8743 -7.43337
upperneck 28.1284 -14.7465 20.9307
head 12.8774 -5.27883 7.42799
rclavicle 1.00883e-014 -1.03368e-014
rhumerus -45.2341 20.5539 -103.018
rradius 31.8133
rwrist 11.0818
rhand -7.32949 -49.2765
rfingers 7.12502
rthumb 18.5539 -78.4116
lclavicle 1.00883e-014 -1.03368e-014
lhumerus -40.4227 -0.954568 84.8121
lradius 36.0295
lwrist -13.8654
lhand -5.95593 -33.6228
lfingers 7.12502
lthumb 19.8747 -4.619
rfemur 10.4387 6.40746 29.3066
rtibia 27.9022
rfoot -10.8714 -23.245
rtoes 5.68106
lfemur -18.9009 -15.9806 -23.3947
ltibia 32.6385
lfoot -21.6534 9.61018
ltoes -18.2275
1753
root 10.0837 15.3045 -33.9205 0.667232 4.60971 -0.698362
lowerback 3.51641 1.41118 -2.39561
upperback -3.83419 1.68773 -0.961968
thorax -5.99504 0.916736 0.195209
lowerneck -7.38415 -6.89365 -7.57416
upperneck 28.0721 -14.7392 20.9339
head 12.8681 -5.29234 7.45144
rclavicle 9.14409e-015 3.18055e-015
rhumerus -44.8851 19.8953 -102.032
rradius 31.5644
rwrist 12.1861
rhand -6.52839 -49.4351
rfingers 7.12502
rthumb 19.3244 -78.4949
lclavicle 9.14409e-015 3.18055e-015
lhumerus -40.2082 -0.820581 84.9681
lradius 35.8676
lwrist -14.0051
lhand -6.066 -34.0127
lfingers 7.12502
lthumb 19.7689 -4.99805
rfemur 9.93103 5.78483 28.8203
rtibia 29.0441
rfoot -10.6492 -22.7093
rtoes 5.92464
lfemur -18.4803 -16.1944 -23.6656
ltibia 32.3047
lfoot -21.7642 9.60069
ltoes -16.7221
1754
root 10.1098 15.3099 -33.871 0.550695 4.26094 -0.609214
lowerback 3.52701 1.45637 -2.4097
upperback -3.72599 1.74675 -1.00063
thorax -5.88762 0.944068 0.159719
lowerneck -7.68489 -6.89629 -7.61377
upperneck 28.2267 -14.7773 20.9498
head 13.015 -5.28765 7.46575
rclavicle 1.66979e-014 3.18055e-015
rhumerus -44.58 19.4381 -101.555
rradius 31.2017
rwrist 11.7136
rhand -7.39678 -49.0966
rfingers 7.12502
rthumb 18.4892 -78.238
lclavicle 1.66979e-014 3.18055e-015
lhumerus -39.8733 -0.691034 84.8801
lradius 35.4872
lwrist -14.3841
lhand -6.47562 -34.5769
lfingers 7.12502
lthumb 19.3751 -5.52216
rfemur 9.48713 5.23367 28.2598
rtibia 30.2379
rfoot -10.1765 -21.8855
rtoes 5.52931
lfemur -17.9024 -16.1866 -23.9553
ltibia 31.9736
lfoot -21.8512 9.93713
ltoes -16.4948
1755
root 10.1301 15.3139 -33.8228 0.48287 4.31002 -0.496578
lowerback 3.69176 1.49816 -2.48768
upperback -3.87542 1.78059 -1.1596
thorax -6.13863 0.962808 0.0269613
lowerneck -7.44324 -6.96778 -7.50206
upperneck 28.3047 -14.9533 21.025
head 13.0319 -5.35828 7.46299
rclavicle 1.08338e-014 -3.18055e-015
rhumerus -44.5941 18.2331 -100.992
rradius 30.9617
rwrist 13.0016
rhand -6.15833 -49.6153
rfingers 7.12502
rthumb 19.6801 -78.6391
lclavicle 1.08338e-014 -3.18055e-015
lhumerus -40.0102 -1.21263 84.892
lradius 35.472
lwrist -14.1276
lhand -5.80888 -34.5511
lfingers 7.12502
lthumb 20.0161 -5.56204
rfemur 9.00269 4.53865 27.7971
rtibia 31.4492
rfoot -9.59233 -21.2958
rtoes 5.19125
lfemur -17.431 -16.2816 -24.2368
ltibia 31.6845
lfoot -21.9589 9.9428
ltoes -16.4215
1756
root 10.151 15.3174 -33.7773 0.447139 4.29443 -0.345515
lowerback 3.91842 1.59049 -2.62334
upperback -3.99178 1.87494 -1.3276
thorax -6.39394 1.01341 -0.0907316
lowerneck -7.40099 -7.07065 -7.28673
upperneck 28.3082 -15.1566 21.0384
head 13.0514 -5.42548 7.39709
rclavicle -1.88348e-014 2.22639e-014
rhumerus -44.7561 17.6719 -100.957
rradius 30.7038
rwrist 12.1704
rhand -7.77944 -49.0311
rfingers 7.12502
rthumb 18.1211 -78.207
lclavicle -1.88348e-014 2.22639e-014
lhumerus -40.0634 -1.75259 84.8744
lradius 35.2148
lwrist -14.4585
lhand -6.02573 -35.0218
lfingers 7.12502
lthumb 19.8076 -6.01106
rfemur 8.45342 3.95655 27.2916
rtibia 32.6963
rfoot -9.17416 -20.6898
rtoes 5.25775
lfemur -17.022 -16.3651 -24.5545
ltibia 31.4324
lfoot -22.0433 10.1638
ltoes -17.0566
1757
root 10.1736 15.3219 -33.7306 0.504077 4.11849 -0.276865
lowerback 3.41656 1.57444 -2.77618
upperback -3.818 1.87105 -1.2436
thorax -5.9296 1.01647 0.102279
lowerneck -7.36474 -6.99625 -7.47782
upperneck 28.1696 -14.9943 21.0955
head 12.9716 -5.37873 7.4729
rclavicle 1.21259e-014 0
rhumerus -44.5655 17.6872 -100.584
rradius 30.4047
rwrist 12.4287
rhand -8.31663 -49.2425
rfingers 7.12502
rthumb 17.6042 -78.4655
lclavicle 1.21259e-014 0
lhumerus -39.7004 -1.55432 85.0097
lradius 35.1481
lwrist -14.524
lhand -5.78306 -34.0264
lfingers 7.12502
lthumb 20.0409 -5.03998
rfemur 7.75774 3.4961 26.8215
rtibia 33.9534
rfoot -8.6209 -19.8972
rtoes 4.97315
lfemur -16.7087 -16.4861 -24.7548
ltibia 31.1715
lfoot -22.1345 10.5558
ltoes -17.3365
1758
root 10.1949 15.3258 -33.6816 0.482444 4.02386 -0.285197
lowerback 3.62502 1.57475 -2.79497
upperback -3.96756 1.85908 -1.23644
thorax -6.20828 1.01453 0.111191
lowerneck -7.5289 -7.01533 -7.47037
upperneck 28.5017 -15.0656 20.9765
head 13.1517 -5.39565 7.43278
rclavicle 1.10325e-014 -6.36111e-015
rhumerus -44.7151 17.0626 -100.147
rradius 30.355
rwrist 12.4863
rhand -7.9824 -49.8968
rfingers 7.12502
rthumb 17.9258 -79.0906
lclavicle 1.10325e-014 -6.36111e-015
lhumerus -39.8085 -1.48793 84.9561
lradius 35.052
lwrist -14.7351
lhand -5.66857 -33.6377
lfingers 7.12502
lthumb 20.1509 -4.66281
rfemur 7.14241 3.03614 26.4729
rtibia 35.2519
rfoot -8.0108 -19.1318
rtoes 5.48951
lfemur -16.2886 -16.637 -24.9024
ltibia 30.8677
lfoot -22.0173 10.9318
ltoes -17.9247
1759
root 10.2151 15.3294 -33.6383 0.331794 4.05938 -0.200694
lowerback 3.70524 1.56698 -2.78406
upperback -3.89002 1.84116 -1.36105
thorax -6.16744 1.0011 -0.0234332
lowerneck -7.63957 -7.04184 -7.35064
upperneck 28.5758 -15.1625 21.0245
head 13.2262 -5.41075 7.4196
rclavicle 1.95306e-014 1.82882e-014
rhumerus -44.5991 16.5249 -99.8346
rradius 30.2266
rwrist 12.7591
rhand -8.22554 -49.8447
rfingers 7.12502
rthumb 17.6918 -79.0598
lclavicle 1.95306e-014 1.82882e-014
lhumerus -39.6135 -1.72132 84.883
lradius 34.9661
lwrist -14.8985
lhand -5.50326 -33.6765
lfingers 7.12502
lthumb 20.3098 -4.71847
rfemur 6.67257 2.53319 26.0794
rtibia 36.5754
rfoot -7.44908 -18.6687
rtoes 6.92648
lfemur -15.7432 -16.7326 -25.1967
ltibia 30.5593
lfoot -21.7643 11.1717
ltoes -18.9153
1760
root 10.24 15.3343 -33.5954 0.221529 4.06742 -0.01995
lowerback 3.82251 1.55641 -2.78902
upperback -3.87893 1.81399 -1.51064
thorax -6.21799 0.984324 -0.177121
lowerneck -7.57703 -7.01487 -7.27986
upperneck 28.535 -15.1599 21.1256
head 13.2008 -5.39838 7.4497
rclavicle -1.75924e-014 3.18055e-015
rhumerus -44.7214 16.1467 -99.6305
rradius 30.2999
rwrist 13.0286
rhand -8.19222 -50.0957
rfingers 7.12502
rthumb 17.7239 -79.3079
lclavicle -1.75924e-014 3.18055e-015
lhumerus -39.4948 -1.91054 84.8083
lradius 34.7651
lwrist -15.1502
lhand -5.63982 -33.8776
lfingers 7.12502
lthumb 20.1786 -4.90561
rfemur 6.10711 1.92183 25.508
rtibia 37.9349
rfoot -6.54091 -18.242
rtoes 6.51236
lfemur -15.2396 -16.9131 -25.5937
ltibia 30.2367
lfoot -21.7437 11.2544
ltoes -18.4417
